<?xml version="1.0" standalone="no"?>
<!DOCTYPE svg PUBLIC "-//W3C//DTD SVG 20010904//EN"
 "http://www.w3.org/TR/2001/REC-SVG-20010904/DTD/svg10.dtd">
<svg version="1.0" xmlns="http://www.w3.org/2000/svg"
 width="1814.000000pt" height="1804.000000pt" viewBox="0 0 1814.000000 1804.000000"
 preserveAspectRatio="xMidYMid meet">

<g transform="translate(0.000000,1804.000000) scale(0.100000,-0.100000)"
fill="#000000" stroke="none">
<path d="M10435 17655 c-233 -60 -375 -215 -420 -458 -17 -89 -16 -95 4 -185
28 -126 98 -248 182 -318 24 -19 52 -42 62 -50 24 -19 21 -40 -5 -48 -13 -3
-86 -6 -163 -6 -200 -1 -313 -19 -400 -66 -167 -89 -305 -309 -305 -484 0 -69
42 -217 83 -290 35 -61 116 -149 182 -196 l30 -22 -30 -12 c-17 -7 -90 -14
-170 -16 -158 -5 -346 -35 -385 -63 -14 -10 -35 -21 -46 -25 -32 -10 -136
-117 -181 -186 -110 -172 -109 -413 4 -579 60 -89 97 -126 167 -168 54 -33 57
-37 41 -50 -16 -11 -275 -13 -1484 -13 -1546 0 -1478 1 -1651 -45 -135 -36
-254 -148 -331 -311 -29 -62 -33 -80 -37 -181 -4 -105 -2 -118 24 -190 35 -95
76 -163 134 -224 67 -68 133 -104 250 -136 l105 -28 2345 0 c2197 0 2348 1
2372 17 18 12 33 38 48 82 17 51 33 76 71 113 63 61 64 61 155 78 111 22 866
21 977 0 139 -26 198 -78 242 -210 22 -66 28 -70 150 -93 111 -22 218 -75 287
-143 35 -35 107 -147 115 -179 3 -14 13 -36 22 -50 14 -23 16 -122 21 -1020
l5 -995 32 -73 c88 -198 239 -318 430 -343 235 -30 426 56 547 245 34 54 76
155 89 216 3 14 7 1425 8 3135 l2 3110 -27 70 c-73 186 -187 309 -346 371
l-75 29 -1540 2 c-1236 1 -1550 -1 -1590 -12z"/>
<path d="M8990 12810 c-25 -4 -110 -18 -190 -30 -80 -12 -163 -29 -185 -39
-22 -10 -53 -21 -70 -25 -31 -7 -90 -33 -204 -89 -158 -78 -420 -280 -543
-419 -67 -76 -161 -207 -191 -268 -9 -19 -21 -42 -26 -50 -17 -27 -81 -165
-81 -175 0 -6 -12 -32 -25 -60 -14 -27 -25 -58 -25 -67 0 -10 -11 -46 -24 -81
-61 -163 -83 -514 -46 -746 12 -75 32 -169 46 -209 13 -40 24 -77 24 -83 0
-33 123 -288 205 -424 92 -153 286 -349 485 -488 111 -78 224 -141 295 -167
255 -92 276 -97 497 -125 l217 -27 223 27 c133 16 245 35 278 47 30 11 71 24
90 30 19 5 59 21 88 34 29 13 57 24 62 24 28 0 286 158 339 208 10 10 55 46
101 82 114 90 274 269 342 385 59 100 148 284 148 305 0 6 7 25 17 43 17 33
54 164 78 277 35 164 27 589 -13 727 -43 146 -51 170 -72 228 -12 33 -32 83
-44 110 -13 28 -28 61 -34 75 -30 65 -103 187 -155 258 -61 84 -204 227 -300
302 -32 25 -72 56 -90 70 -18 14 -39 30 -48 35 -9 6 -36 24 -60 41 -40 28
-169 98 -244 132 -69 31 -256 92 -282 92 -16 0 -96 11 -179 25 -151 25 -307
31 -404 15z m532 -360 c268 -75 381 -135 608 -326 104 -87 240 -236 240 -262
0 -5 9 -20 20 -34 33 -43 128 -241 160 -334 41 -121 69 -275 77 -419 7 -148
-22 -354 -69 -490 -38 -112 -128 -298 -186 -388 -72 -111 -234 -272 -362 -360
-196 -134 -284 -175 -490 -228 -245 -62 -464 -64 -715 -8 -187 42 -326 106
-504 233 -287 203 -440 412 -556 761 -7 22 -25 90 -39 151 -35 151 -37 399 -5
539 44 186 81 303 117 365 11 19 23 46 27 59 4 12 17 38 29 56 11 19 32 53 46
76 76 130 260 305 465 445 44 29 172 94 187 94 7 0 29 8 48 18 19 10 58 24 85
32 28 7 79 21 115 32 82 23 282 35 457 26 102 -5 156 -13 245 -38z"/>
<path d="M9005 12100 c-202 -18 -424 -128 -610 -302 -90 -84 -137 -145 -188
-243 -65 -127 -77 -156 -98 -238 -11 -45 -25 -100 -31 -122 -6 -22 -11 -101
-11 -175 0 -110 4 -147 22 -200 11 -36 21 -73 21 -83 0 -51 104 -271 171 -362
71 -98 305 -291 383 -318 17 -5 36 -13 41 -17 22 -16 205 -70 272 -79 205 -31
445 -1 609 75 28 13 56 24 61 24 6 0 42 21 79 47 236 160 351 300 445 544 35
91 69 275 69 376 0 78 -33 291 -51 326 -14 27 -50 67 -60 67 -4 0 -14 -18 -23
-40 -34 -85 -126 -178 -206 -207 -45 -16 -207 -17 -251 -1 -56 19 -137 81
-174 133 -51 72 -72 172 -56 263 14 77 54 154 106 205 32 31 169 97 201 97 18
0 44 34 36 47 -10 15 -94 73 -107 73 -6 0 -27 9 -47 19 -71 39 -223 81 -324
91 -110 11 -161 11 -279 0z"/>
<path d="M4634 11670 c-73 -15 -104 -27 -160 -63 -113 -72 -194 -187 -233
-328 l-21 -76 2 -3119 c3 -3006 4 -3121 22 -3174 43 -130 148 -267 246 -322
25 -14 91 -38 148 -52 l103 -26 1462 0 1462 0 103 25 c116 28 158 47 224 102
57 47 98 102 146 196 33 67 36 80 40 182 5 139 -7 202 -55 289 -54 98 -193
234 -267 260 -15 5 -17 9 -7 19 8 8 84 14 254 18 211 5 252 9 317 29 41 12 88
29 104 37 79 41 166 124 201 193 9 19 23 42 31 50 15 18 54 184 54 231 0 59
-41 200 -77 266 -36 66 -116 152 -183 196 -38 25 -50 54 -28 68 7 5 79 9 159
9 210 0 351 21 436 64 80 40 159 112 198 181 15 28 36 62 46 76 19 28 49 167
49 226 0 106 -48 237 -125 340 -28 36 -121 118 -172 150 -17 10 -17 12 -2 28
16 16 118 17 1510 19 l1494 1 93 22 c141 33 246 103 326 217 120 172 135 335
48 517 -48 99 -123 195 -188 238 -58 40 -138 81 -184 95 -24 7 -1018 12 -3215
16 -2957 5 -3186 7 -3264 23 -90 18 -170 58 -234 116 -53 47 -128 163 -157
241 l-25 65 -5 985 -5 985 -30 65 c-61 134 -167 247 -281 299 -29 13 -196 41
-237 40 -17 -1 -73 -9 -123 -19z"/>
<path d="M160 2844 c-14 -3 -55 -14 -92 -25 l-68 -20 0 -49 c0 -28 4 -50 9
-50 5 0 30 9 56 21 42 19 67 21 225 22 l178 1 77 -40 c88 -45 145 -102 198
-197 52 -93 50 -115 -19 -168 -139 -110 -179 -146 -179 -165 0 -15 8 -20 38
-22 39 -3 80 16 144 67 17 14 56 44 86 66 84 61 93 93 53 179 -14 29 -27 63
-31 76 -3 14 -32 58 -63 99 -41 53 -75 85 -122 113 -61 37 -79 46 -170 77 -36
13 -276 23 -320 15z"/>
<path d="M7054 2789 c-18 -20 -19 -54 -22 -1033 l-2 -1011 21 -17 c25 -21 55
-23 66 -6 4 7 8 405 9 884 1 479 5 881 9 893 9 29 23 26 37 -6 7 -16 19 -39
28 -53 9 -14 25 -45 34 -70 10 -24 37 -85 61 -135 72 -151 105 -223 105 -232
0 -5 11 -24 23 -43 13 -19 27 -48 31 -64 4 -17 15 -41 25 -55 10 -14 22 -37
26 -51 4 -14 15 -41 25 -60 10 -19 31 -64 48 -100 17 -36 52 -110 78 -165 26
-55 57 -122 69 -150 30 -72 65 -125 81 -125 15 0 59 64 81 119 8 20 27 63 42
96 16 33 42 89 59 125 16 36 53 115 82 175 29 61 62 133 75 160 13 28 48 102
78 165 30 63 58 126 62 140 4 14 13 32 21 40 7 9 20 34 28 57 8 22 26 63 40
89 14 27 26 53 26 59 1 5 16 28 35 50 29 33 37 37 45 25 11 -17 14 -1627 4
-1655 -16 -42 -33 -43 -601 -43 -378 0 -548 -4 -562 -12 -33 -17 -27 -56 10
-69 22 -8 218 -11 616 -11 l584 0 25 25 25 25 -3 1010 -3 1009 -23 23 c-21 21
-24 22 -50 8 -29 -17 -34 -26 -118 -205 -31 -66 -78 -165 -104 -220 -72 -150
-110 -233 -110 -239 0 -3 -35 -78 -78 -168 -43 -90 -84 -179 -92 -198 -7 -19
-22 -46 -32 -59 -10 -13 -18 -30 -18 -38 0 -9 -11 -36 -24 -62 -13 -25 -41
-81 -62 -123 -23 -47 -45 -78 -54 -78 -17 1 -65 71 -82 122 -6 18 -19 44 -30
57 -10 13 -18 29 -18 36 0 7 -14 41 -31 76 -17 35 -39 82 -49 104 -11 22 -46
99 -80 170 -34 72 -75 159 -91 195 -17 36 -43 92 -59 125 -16 33 -43 92 -60
130 -35 77 -42 90 -58 120 -23 44 -82 175 -82 185 0 17 -62 80 -79 80 -10 0
-26 -9 -37 -21z"/>
<path d="M17815 2485 c-5 -2 -51 -9 -102 -14 -77 -8 -103 -16 -174 -53 -70
-36 -92 -55 -144 -119 -59 -72 -63 -80 -74 -153 -21 -144 -9 -256 34 -312 14
-18 25 -36 25 -41 0 -18 180 -153 203 -153 4 0 26 -9 50 -20 43 -20 134 -49
242 -77 33 -9 94 -28 135 -44 41 -15 87 -30 103 -34 27 -7 27 -7 27 43 0 54
-9 62 -85 78 -34 7 -174 50 -314 96 -186 62 -294 145 -326 253 -24 78 -23 123
5 215 39 130 121 194 297 229 124 26 133 26 278 1 64 -11 123 -20 131 -20 10
0 14 14 14 48 l0 49 -62 11 c-70 12 -247 24 -263 17z"/>
<path d="M11238 2470 c-115 -14 -227 -63 -310 -137 -81 -71 -146 -177 -172
-282 -8 -31 -22 -83 -30 -116 -22 -84 -32 -465 -17 -607 6 -59 20 -131 30
-160 10 -29 21 -71 25 -92 11 -57 80 -173 139 -234 77 -78 176 -126 317 -151
126 -23 207 -26 260 -11 19 6 74 14 121 19 60 7 102 17 135 35 27 14 64 28 81
32 29 6 34 3 44 -22 7 -19 8 -67 4 -142 -6 -95 -12 -124 -39 -185 -40 -91 -65
-119 -146 -167 -78 -45 -111 -50 -375 -59 l-189 -6 -15 -27 c-13 -22 -13 -28
-1 -43 13 -15 37 -16 239 -13 258 5 307 15 418 88 105 68 154 150 189 319 24
119 25 127 22 530 -2 225 -6 413 -10 417 -9 9 -67 8 -77 -1 -3 -4 -8 -120 -11
-258 -5 -241 -6 -253 -27 -283 -33 -46 -106 -88 -208 -120 -82 -26 -103 -28
-240 -28 -138 0 -157 2 -235 29 -203 68 -309 212 -346 470 -32 223 -17 654 26
750 10 22 23 57 30 77 25 80 110 179 203 237 49 30 226 64 330 63 112 -1 276
-35 336 -69 59 -33 111 -82 111 -103 0 -26 -68 -91 -229 -218 -57 -45 -72 -65
-69 -92 4 -34 42 -37 90 -8 40 25 270 216 306 255 33 36 28 68 -19 125 -132
156 -380 224 -691 188z"/>
<path d="M14700 2469 c-76 -10 -173 -46 -242 -90 -65 -42 -145 -132 -174 -196
-12 -28 -28 -54 -33 -58 -6 -3 -11 -16 -11 -28 0 -12 -11 -58 -25 -102 -51
-161 -56 -674 -7 -820 11 -33 23 -76 27 -95 25 -121 146 -272 266 -332 134
-68 364 -95 533 -63 136 26 169 35 197 56 15 10 34 19 43 19 9 0 30 14 48 30
17 17 35 30 40 30 14 0 30 52 23 77 -8 34 -34 29 -106 -22 -41 -29 -98 -56
-159 -77 -90 -29 -103 -31 -250 -31 -157 1 -164 2 -289 48 -107 39 -199 140
-252 275 -31 80 -44 159 -58 345 -15 190 12 522 47 592 11 21 22 52 26 68 10
39 65 122 108 160 79 72 120 93 231 116 236 50 526 -5 620 -117 28 -33 28 -34
10 -59 -22 -30 -186 -170 -492 -420 -144 -118 -181 -152 -181 -168 0 -16 55
-29 86 -19 18 5 141 101 274 213 134 112 286 240 339 284 120 101 128 126 65
194 -13 14 -24 29 -24 33 0 13 -121 88 -191 118 -106 45 -315 62 -489 39z"/>
<path d="M1253 2448 c-21 -26 -24 -56 -8 -72 14 -14 52 -16 286 -16 266 0 301
-4 321 -34 4 -6 8 -365 8 -798 0 -702 2 -788 16 -802 13 -13 58 -22 66 -13 2
1 5 364 8 805 l5 804 24 19 c22 18 42 19 293 19 166 0 277 4 289 10 20 11 25
45 9 70 -8 13 -94 15 -658 18 -516 2 -651 0 -659 -10z"/>
<path d="M4562 2440 l-22 -21 0 -842 c0 -642 3 -846 12 -855 19 -19 66 -15 78
7 7 13 10 284 10 810 0 704 2 791 16 805 31 31 436 16 503 -19 17 -8 53 -20
80 -25 99 -19 216 -117 244 -206 30 -93 30 -116 2 -200 -33 -97 -94 -165 -203
-225 -118 -66 -118 -61 -12 -284 16 -33 45 -96 65 -140 63 -138 77 -169 91
-195 8 -14 21 -41 29 -60 39 -88 63 -138 96 -204 34 -66 39 -71 73 -74 48 -4
55 16 27 72 -11 24 -21 49 -21 56 0 6 -8 24 -19 38 -10 15 -22 38 -26 51 -4
13 -32 73 -61 132 -30 60 -54 111 -54 114 0 3 -24 56 -54 118 -29 62 -68 145
-85 184 -30 69 -31 74 -16 103 9 17 35 42 58 56 63 39 134 111 175 179 l37 60
0 120 c0 95 -4 127 -18 152 -40 74 -82 126 -130 161 -46 34 -75 47 -207 97
-62 23 -352 55 -504 55 -129 0 -144 -2 -164 -20z"/>
<path d="M15703 2450 c-30 -12 -32 -64 -4 -80 12 -6 123 -10 289 -10 251 0
271 -1 293 -19 l24 -19 3 -793 c2 -560 6 -796 13 -806 14 -16 55 -17 66 0 4 6
8 369 8 805 l0 794 24 19 c22 18 42 19 302 19 l279 0 15 24 c22 33 7 61 -36
70 -49 10 -1251 6 -1276 -4z"/>
<path d="M12549 2433 c-12 -13 -14 -161 -17 -850 -1 -569 1 -840 8 -853 12
-23 59 -27 78 -8 9 9 12 185 13 727 1 394 4 727 8 741 4 14 12 25 18 25 10 0
83 -99 83 -113 0 -3 10 -19 23 -36 13 -17 45 -68 73 -113 27 -46 58 -98 69
-116 11 -18 29 -47 40 -66 11 -18 33 -54 49 -79 16 -26 45 -72 64 -102 19 -30
43 -67 53 -82 11 -15 19 -31 19 -36 0 -5 12 -25 28 -45 15 -20 38 -55 52 -78
14 -23 39 -65 57 -93 17 -28 44 -71 59 -96 15 -25 37 -61 49 -80 12 -19 48
-78 80 -130 86 -140 133 -213 145 -227 15 -17 75 -16 89 1 9 10 12 231 11 847
0 725 -2 836 -15 856 -18 28 -33 29 -51 6 -11 -15 -13 -155 -14 -739 0 -560
-3 -724 -12 -737 -12 -15 -16 -14 -44 11 -17 15 -84 113 -149 217 -65 105
-125 201 -135 215 -10 14 -27 43 -39 65 -12 22 -35 60 -51 85 -16 25 -41 65
-55 90 -14 25 -33 56 -43 70 -11 14 -30 43 -44 65 -13 22 -36 58 -50 80 -139
221 -198 317 -198 321 0 3 -13 24 -29 47 -15 23 -42 65 -59 92 -64 104 -93
135 -122 135 -15 0 -34 -7 -41 -17z"/>
<path d="M3415 2358 c-19 -39 -35 -77 -35 -84 0 -7 -13 -38 -30 -69 -16 -31
-30 -63 -30 -70 0 -6 -11 -32 -23 -56 -13 -24 -30 -62 -37 -84 -7 -22 -24 -60
-37 -84 -12 -24 -23 -51 -23 -59 0 -8 -8 -29 -19 -46 -10 -17 -24 -49 -31 -71
-7 -22 -17 -45 -21 -51 -5 -6 -18 -37 -29 -69 -11 -32 -24 -63 -29 -69 -5 -6
-18 -33 -29 -61 -11 -27 -36 -88 -57 -135 -20 -47 -45 -109 -56 -139 -10 -30
-23 -59 -29 -66 -5 -6 -16 -29 -24 -51 -8 -21 -31 -77 -52 -124 -20 -47 -44
-105 -54 -130 -9 -25 -22 -57 -30 -72 -19 -41 -7 -60 37 -56 32 3 40 9 59 46
13 24 32 68 44 99 11 31 27 65 35 77 8 11 15 27 15 35 0 14 37 104 86 207 13
28 24 54 24 57 0 4 13 35 29 69 15 35 32 74 36 87 4 14 16 38 26 55 11 17 19
37 19 45 0 7 14 40 30 73 17 32 30 64 30 71 0 6 11 34 24 62 42 88 86 191 86
201 0 5 11 29 24 54 13 25 27 56 31 70 13 45 75 170 84 170 14 0 69 -66 76
-92 3 -13 20 -54 36 -93 17 -38 39 -90 49 -115 49 -118 92 -217 102 -234 5
-11 19 -44 29 -75 11 -30 25 -64 33 -75 7 -12 21 -44 30 -72 9 -28 23 -60 31
-70 8 -10 15 -26 15 -35 0 -8 11 -38 25 -65 14 -27 30 -65 36 -84 7 -19 22
-55 35 -80 13 -25 24 -52 24 -60 0 -8 9 -30 21 -49 25 -42 56 -140 51 -164 -2
-10 -15 -20 -30 -23 -15 -3 -219 -6 -453 -7 -457 -2 -459 -2 -459 -53 0 -13 9
-28 19 -34 27 -14 1025 -14 1052 0 27 15 24 55 -11 125 -16 33 -30 67 -30 75
0 8 -9 29 -20 45 -11 17 -20 36 -20 43 0 7 -9 32 -21 55 -11 23 -30 67 -41 97
-12 30 -27 64 -33 75 -7 11 -18 36 -24 55 -6 19 -22 57 -36 84 -14 27 -25 57
-25 66 0 9 -4 20 -9 25 -10 10 -52 107 -92 210 -11 28 -26 64 -34 80 -31 65
-85 193 -85 201 0 5 -14 36 -30 69 -17 33 -30 67 -30 77 0 9 -4 19 -9 23 -5 3
-19 31 -31 63 -11 31 -29 73 -39 92 -10 19 -21 48 -25 64 -8 33 -56 96 -73 96
-7 0 -28 -32 -48 -72z"/>
<path d="M9673 2418 c-6 -7 -15 -26 -21 -43 -19 -52 -69 -169 -91 -212 -11
-23 -21 -50 -21 -59 0 -9 -9 -27 -20 -41 -11 -14 -20 -32 -20 -40 0 -8 -11
-38 -24 -66 -14 -29 -31 -70 -39 -92 -28 -76 -77 -186 -92 -208 -8 -12 -15
-29 -15 -38 0 -9 -11 -37 -25 -63 -14 -26 -25 -53 -25 -60 0 -7 -11 -33 -23
-57 -13 -24 -30 -62 -37 -84 -7 -22 -23 -60 -36 -85 -13 -25 -24 -51 -24 -58
0 -7 -13 -38 -30 -69 -16 -31 -30 -63 -30 -72 0 -9 -7 -26 -15 -38 -9 -12 -22
-42 -31 -65 -8 -24 -23 -61 -33 -83 -10 -22 -28 -64 -39 -93 -18 -46 -19 -54
-5 -67 8 -8 25 -15 39 -15 21 0 30 13 64 84 22 46 40 90 40 98 0 8 4 18 9 23
9 9 42 83 91 205 10 25 35 83 55 130 20 47 43 103 51 124 8 22 23 58 33 80 11
23 34 75 51 116 18 41 45 102 61 134 16 32 29 66 29 74 0 8 8 29 19 46 10 17
24 49 31 71 7 22 21 53 31 70 11 16 19 36 19 43 0 18 79 182 88 182 23 0 53
-37 72 -88 12 -31 30 -70 40 -87 9 -16 20 -46 24 -66 4 -21 13 -42 21 -49 8
-6 19 -28 26 -48 6 -20 24 -65 40 -100 16 -35 29 -67 29 -72 0 -5 11 -30 25
-56 14 -26 25 -54 25 -63 0 -9 8 -30 19 -46 10 -17 24 -48 31 -70 7 -22 23
-58 36 -81 13 -22 24 -47 24 -55 0 -8 14 -41 30 -74 16 -33 30 -67 30 -75 0
-8 8 -29 19 -46 10 -17 22 -41 26 -55 3 -13 17 -46 29 -74 68 -147 69 -158 26
-180 -25 -13 -93 -15 -455 -15 -275 0 -433 -4 -446 -10 -29 -16 -25 -58 7 -70
36 -14 1019 -13 1045 0 26 14 24 55 -5 110 -13 25 -27 56 -30 70 -4 14 -16 43
-26 65 -11 22 -36 78 -55 125 -20 47 -47 110 -60 140 -12 30 -37 89 -55 130
-17 41 -43 102 -57 135 -14 33 -33 78 -43 100 -28 61 -70 165 -88 215 -8 25
-21 52 -27 60 -7 8 -16 26 -20 40 -10 32 -88 215 -109 255 -9 17 -16 37 -16
45 0 8 -8 29 -18 45 -10 17 -26 52 -35 80 -16 44 -60 105 -78 105 -3 0 -11 -6
-16 -12z"/>
<path d="M0 1934 l0 -54 84 -40 c46 -22 88 -40 93 -40 4 0 28 -11 53 -24 25
-13 58 -26 74 -30 17 -4 42 -16 57 -27 15 -10 35 -19 46 -20 16 0 105 -43 222
-107 104 -57 180 -131 225 -219 34 -69 35 -164 3 -283 -34 -121 -82 -191 -165
-237 -113 -63 -181 -77 -387 -76 -162 0 -185 2 -228 21 -73 33 -77 31 -77 -33
0 -30 1 -55 3 -55 1 0 47 -7 102 -16 210 -31 232 -33 311 -24 208 23 331 66
403 141 21 21 57 71 80 111 43 74 49 96 77 310 7 48 -15 155 -44 212 -19 38
-151 169 -205 203 -64 40 -210 113 -227 113 -9 0 -20 4 -26 9 -5 6 -61 31
-124 56 -63 25 -168 72 -232 105 l-118 59 0 -55z"/>
<path d="M17338 869 c-21 -12 -22 -28 -6 -65 19 -40 139 -91 257 -109 53 -8
116 -19 141 -24 66 -15 165 -13 266 4 158 27 144 19 144 81 0 30 -2 54 -5 54
-3 0 -16 -7 -29 -15 -50 -33 -272 -44 -442 -21 -85 11 -117 21 -196 60 -101
50 -104 50 -130 35z"/>
</g>
</svg>
